<mxfile host="65bd71144e">
    <diagram id="JWI3mTaXbDVpzX2tzBYQ" name="Page-1">
        <mxGraphModel dx="714" dy="427" grid="0" gridSize="10" guides="1" tooltips="1" connect="1" arrows="1" fold="1" page="1" pageScale="1" pageWidth="1920" pageHeight="1200" math="0" shadow="0">
            <root>
                <mxCell id="0"/>
                <mxCell id="1" parent="0"/>
                <mxCell id="2" value="core" style="rounded=0;whiteSpace=wrap;html=1;fillColor=#ffe6cc;" vertex="1" parent="1">
                    <mxGeometry x="800" y="642" width="300" height="60" as="geometry"/>
                </mxCell>
                <mxCell id="3" value="config" style="rounded=0;whiteSpace=wrap;html=1;fillColor=#f8cecc;" vertex="1" parent="1">
                    <mxGeometry x="800" y="222" width="120" height="420" as="geometry"/>
                </mxCell>
                <mxCell id="5" value="enum" style="rounded=0;whiteSpace=wrap;html=1;fillColor=#fff2cc;strokeColor=#d6b656;" vertex="1" parent="1">
                    <mxGeometry x="920" y="582" width="180" height="60" as="geometry"/>
                </mxCell>
                <mxCell id="6" value="entity" style="rounded=0;whiteSpace=wrap;html=1;fillColor=#fff2cc;strokeColor=#d6b656;" vertex="1" parent="1">
                    <mxGeometry x="920" y="522" width="180" height="60" as="geometry"/>
                </mxCell>
                <mxCell id="7" value="mapper" style="rounded=0;whiteSpace=wrap;html=1;fillColor=#fff2cc;strokeColor=#d6b656;" vertex="1" parent="1">
                    <mxGeometry x="920" y="462" width="180" height="60" as="geometry"/>
                </mxCell>
                <mxCell id="8" value="cache" style="rounded=0;whiteSpace=wrap;html=1;fillColor=#fff2cc;strokeColor=#d6b656;" vertex="1" parent="1">
                    <mxGeometry x="920" y="402" width="180" height="60" as="geometry"/>
                </mxCell>
                <mxCell id="10" value="service" style="rounded=0;whiteSpace=wrap;html=1;fillColor=#dae8fc;strokeColor=#6c8ebf;" vertex="1" parent="1">
                    <mxGeometry x="920" y="282" width="180" height="60" as="geometry"/>
                </mxCell>
                <mxCell id="11" value="controller" style="rounded=0;whiteSpace=wrap;html=1;fillColor=#dae8fc;strokeColor=#6c8ebf;" vertex="1" parent="1">
                    <mxGeometry x="920" y="222" width="180" height="60" as="geometry"/>
                </mxCell>
                <mxCell id="12" value="converter" style="rounded=0;whiteSpace=wrap;html=1;fillColor=#fff2cc;strokeColor=#d6b656;" vertex="1" parent="1">
                    <mxGeometry x="920" y="342" width="180" height="60" as="geometry"/>
                </mxCell>
            </root>
        </mxGraphModel>
    </diagram>
</mxfile>